<?xml version="1.0" encoding="UTF-8" standalone="no"?>
<!DOCTYPE svg PUBLIC "-//W3C//DTD SVG 1.1//EN"
 "http://www.w3.org/Graphics/SVG/1.1/DTD/svg11.dtd">
<!-- Generated by graphviz version 2.47.0 (20210316.0004)
 -->
<!-- Title: 《尚书》今、古、伪古各本篇数卷数演变情况表 Pages: 1 -->
<svg width="441pt" height="576pt"
 viewBox="0.00 0.00 441.01 576.00" xmlns="http://www.w3.org/2000/svg" xmlns:xlink="http://www.w3.org/1999/xlink">
<g id="graph0" class="graph" transform="scale(0.39 0.39) rotate(0) translate(4 1466)">
<title>《尚书》今、古、伪古各本篇数卷数演变情况表</title>
<polygon fill="white" stroke="transparent" points="-4,4 -4,-1466 1121.5,-1466 1121.5,4 -4,4"/>
<g id="clust13" class="cluster">
<title>cluster_XU</title>
<polygon fill="none" stroke="black" points="592.5,-1201 592.5,-1291 670.5,-1291 670.5,-1201 592.5,-1201"/>
<text text-anchor="middle" x="631.5" y="-1275.8" font-family="Microsoft YaHei" font-size="14.00">(成帝时）</text>
<text text-anchor="middle" x="631.5" y="-1260.8" font-family="Microsoft YaHei" font-size="14.00">两百篇</text>
</g>
<g id="clust14" class="cluster">
<title>cluster_WEIGUWEN</title>
<polygon fill="none" stroke="black" points="297.5,-278 297.5,-632 608.5,-632 608.5,-278 297.5,-278"/>
<text text-anchor="middle" x="453" y="-616.8" font-family="Microsoft YaHei" font-size="14.00">伪古文尚书本</text>
<text text-anchor="middle" x="453" y="-601.8" font-family="Microsoft YaHei" font-size="14.00">（孔传本）</text>
</g>
<!-- hanchu -->
<g id="node1" class="node">
<title>hanchu</title>
<text text-anchor="middle" x="80.5" y="-1429.8" font-family="Microsoft YaHei" font-size="24.00">汉初</text>
</g>
<!-- hanwudi -->
<g id="node2" class="node">
<title>hanwudi</title>
<text text-anchor="middle" x="80.5" y="-1330.8" font-family="Microsoft YaHei" font-size="24.00">汉武帝时</text>
</g>
<!-- hanchu&#45;&gt;hanwudi -->
<g id="edge1" class="edge">
<title>hanchu&#45;&gt;hanwudi</title>
<path fill="none" stroke="black" stroke-dasharray="1,5" d="M80.5,-1417.66C80.5,-1403.18 80.5,-1382.26 80.5,-1365.5"/>
<polygon fill="black" stroke="black" points="84,-1365.19 80.5,-1355.19 77,-1365.19 84,-1365.19"/>
</g>
<!-- xihanxuandi -->
<g id="node3" class="node">
<title>xihanxuandi</title>
<text text-anchor="middle" x="80.5" y="-1220.8" font-family="Microsoft YaHei" font-size="24.00">西汉宣帝以后</text>
</g>
<!-- hanwudi&#45;&gt;xihanxuandi -->
<g id="edge2" class="edge">
<title>hanwudi&#45;&gt;xihanxuandi</title>
<path fill="none" stroke="black" stroke-dasharray="1,5" d="M80.5,-1318.65C80.5,-1301.56 80.5,-1275.22 80.5,-1255.32"/>
<polygon fill="black" stroke="black" points="84,-1255.31 80.5,-1245.31 77,-1255.31 84,-1255.31"/>
</g>
<!-- aiping -->
<g id="node4" class="node">
<title>aiping</title>
<text text-anchor="middle" x="80.5" y="-1044.8" font-family="Microsoft YaHei" font-size="24.00">哀平之世</text>
</g>
<!-- xihanxuandi&#45;&gt;aiping -->
<g id="edge3" class="edge">
<title>xihanxuandi&#45;&gt;aiping</title>
<path fill="none" stroke="black" stroke-dasharray="1,5" d="M80.5,-1209C80.5,-1178.85 80.5,-1115.79 80.5,-1079.43"/>
<polygon fill="black" stroke="black" points="84,-1079.07 80.5,-1069.07 77,-1079.07 84,-1079.07"/>
</g>
<!-- donghan -->
<g id="node5" class="node">
<title>donghan</title>
<text text-anchor="middle" x="80.5" y="-835.8" font-family="Microsoft YaHei" font-size="24.00">东汉</text>
</g>
<!-- aiping&#45;&gt;donghan -->
<g id="edge4" class="edge">
<title>aiping&#45;&gt;donghan</title>
<path fill="none" stroke="black" stroke-dasharray="1,5" d="M80.5,-1032.71C80.5,-996.7 80.5,-913.43 80.5,-870.18"/>
<polygon fill="black" stroke="black" points="84,-870.1 80.5,-860.1 77,-870.1 84,-870.1"/>
</g>
<!-- wei -->
<g id="node6" class="node">
<title>wei</title>
<text text-anchor="middle" x="80.5" y="-681.8" font-family="Microsoft YaHei" font-size="24.00">魏</text>
</g>
<!-- donghan&#45;&gt;wei -->
<g id="edge5" class="edge">
<title>donghan&#45;&gt;wei</title>
<path fill="none" stroke="black" stroke-dasharray="1,5" d="M80.5,-823.86C80.5,-797.75 80.5,-747.74 80.5,-716.51"/>
<polygon fill="black" stroke="black" points="84,-716.31 80.5,-706.31 77,-716.31 84,-716.31"/>
</g>
<!-- dongjin -->
<g id="node7" class="node">
<title>dongjin</title>
<text text-anchor="middle" x="80.5" y="-465.8" font-family="Microsoft YaHei" font-size="24.00">东晋</text>
</g>
<!-- wei&#45;&gt;dongjin -->
<g id="edge6" class="edge">
<title>wei&#45;&gt;dongjin</title>
<path fill="none" stroke="black" stroke-dasharray="1,5" d="M80.5,-669.85C80.5,-632.83 80.5,-545.18 80.5,-500.39"/>
<polygon fill="black" stroke="black" points="84,-500.23 80.5,-490.23 77,-500.23 84,-500.23"/>
</g>
<!-- tang -->
<g id="node8" class="node">
<title>tang</title>
<text text-anchor="middle" x="80.5" y="-184.8" font-family="Microsoft YaHei" font-size="24.00">唐</text>
</g>
<!-- dongjin&#45;&gt;tang -->
<g id="edge7" class="edge">
<title>dongjin&#45;&gt;tang</title>
<path fill="none" stroke="black" stroke-dasharray="1,5" d="M80.5,-453.97C80.5,-407.17 80.5,-276.35 80.5,-219.24"/>
<polygon fill="black" stroke="black" points="84,-219.16 80.5,-209.16 77,-219.16 84,-219.16"/>
</g>
<!-- song -->
<g id="node9" class="node">
<title>song</title>
<text text-anchor="middle" x="80.5" y="-41.8" font-family="Microsoft YaHei" font-size="24.00">宋以后</text>
</g>
<!-- tang&#45;&gt;song -->
<g id="edge8" class="edge">
<title>tang&#45;&gt;song</title>
<path fill="none" stroke="black" stroke-dasharray="1,5" d="M80.5,-172.99C80.5,-148.96 80.5,-104.81 80.5,-76.2"/>
<polygon fill="black" stroke="black" points="84,-76.07 80.5,-66.07 77,-76.07 84,-76.07"/>
</g>
<!-- FUSHENG -->
<g id="node10" class="node">
<title>FUSHENG</title>
<polygon fill="none" stroke="black" points="351,-1462 274,-1462 274,-1410 351,-1410 351,-1462"/>
<text text-anchor="middle" x="312.5" y="-1442" font-family="Microsoft YaHei" font-size="20.00">伏生本</text>
<text text-anchor="middle" x="312.5" y="-1420" font-family="Microsoft YaHei" font-size="20.00">28篇</text>
</g>
<!-- XIAHOU -->
<g id="node11" class="node">
<title>XIAHOU</title>
<polygon fill="none" stroke="black" points="385.5,-1264 227.5,-1264 227.5,-1190 385.5,-1190 385.5,-1264"/>
<text text-anchor="middle" x="306.5" y="-1244" font-family="Microsoft YaHei" font-size="20.00">大、小夏侯氏本</text>
<text text-anchor="middle" x="306.5" y="-1222" font-family="Microsoft YaHei" font-size="20.00">经29篇</text>
<text text-anchor="middle" x="306.5" y="-1200" font-family="Microsoft YaHei" font-size="20.00">章句29篇</text>
</g>
<!-- FUSHENG&#45;&gt;XIAHOU -->
<g id="edge9" class="edge">
<title>FUSHENG&#45;&gt;XIAHOU</title>
<path fill="none" stroke="black" d="M311.76,-1409.62C310.71,-1373.13 308.75,-1305.67 307.54,-1264.03"/>
</g>
<!-- OUYANG -->
<g id="node12" class="node">
<title>OUYANG</title>
<polygon fill="none" stroke="black" points="492.5,-1374 334.5,-1374 334.5,-1300 492.5,-1300 492.5,-1374"/>
<text text-anchor="middle" x="413.5" y="-1354" font-family="Microsoft YaHei" font-size="20.00">立学官欧阳氏本</text>
<text text-anchor="middle" x="413.5" y="-1332" font-family="Microsoft YaHei" font-size="20.00">经29篇</text>
<text text-anchor="middle" x="413.5" y="-1310" font-family="Microsoft YaHei" font-size="20.00">28+太誓</text>
</g>
<!-- FUSHENG&#45;&gt;OUYANG -->
<g id="edge10" class="edge">
<title>FUSHENG&#45;&gt;OUYANG</title>
<path fill="none" stroke="black" d="M338.77,-1409.77C350.11,-1398.88 363.59,-1385.94 375.95,-1374.06"/>
</g>
<!-- DULIN -->
<g id="node15" class="node">
<title>DULIN</title>
<polygon fill="none" stroke="black" points="425.5,-912 131.5,-912 131.5,-772 425.5,-772 425.5,-912"/>
<text text-anchor="middle" x="278.5" y="-892" font-family="Microsoft YaHei" font-size="20.00">杜林漆书古文本</text>
<text text-anchor="middle" x="278.5" y="-870" font-family="Microsoft YaHei" font-size="20.00">（以古文改写今文）</text>
<text text-anchor="middle" x="278.5" y="-848" font-family="Microsoft YaHei" font-size="20.00">29篇</text>
<text text-anchor="middle" x="278.5" y="-826" font-family="Microsoft YaHei" font-size="20.00">马、郑注本34篇</text>
<text text-anchor="middle" x="278.5" y="-804" font-family="Microsoft YaHei" font-size="20.00">（29+盘庚2太誓2康王之诰1）</text>
<text text-anchor="middle" x="278.5" y="-782" font-family="Microsoft YaHei" font-size="20.00">（亦冒称孔壁本58篇虚数）</text>
</g>
<!-- XIAHOU&#45;&gt;DULIN -->
<g id="edge14" class="edge">
<title>XIAHOU&#45;&gt;DULIN</title>
<path fill="none" stroke="black" d="M303.87,-1189.97C299.22,-1126.47 289.51,-993.65 283.54,-912.01"/>
</g>
<!-- OUYANG&#45;&gt;XIAHOU -->
<g id="edge11" class="edge">
<title>OUYANG&#45;&gt;XIAHOU</title>
<path fill="none" stroke="black" d="M377.57,-1299.74C366.28,-1288.34 353.81,-1275.76 342.51,-1264.35"/>
</g>
<!-- OUYANGBENJING -->
<g id="node13" class="node">
<title>OUYANGBENJING</title>
<polygon fill="none" stroke="black" points="520,-1099 333,-1099 333,-1003 520,-1003 520,-1099"/>
<text text-anchor="middle" x="426.5" y="-1079" font-family="Microsoft YaHei" font-size="20.00">欧阳本经29篇</text>
<text text-anchor="middle" x="426.5" y="-1057" font-family="Microsoft YaHei" font-size="20.00">32卷</text>
<text text-anchor="middle" x="426.5" y="-1035" font-family="Microsoft YaHei" font-size="20.00">章句31+书序=32</text>
<text text-anchor="middle" x="426.5" y="-1013" font-family="Microsoft YaHei" font-size="20.00">（29+盘庚2=31）</text>
</g>
<!-- OUYANG&#45;&gt;OUYANGBENJING -->
<g id="edge12" class="edge">
<title>OUYANG&#45;&gt;OUYANGBENJING</title>
<path fill="none" stroke="black" d="M415.16,-1299.74C417.49,-1248.75 421.75,-1155.79 424.33,-1099.38"/>
</g>
<!-- HANSHIJING -->
<g id="node14" class="node">
<title>HANSHIJING</title>
<polygon fill="none" stroke="black" points="545,-890 444,-890 444,-794 545,-794 545,-890"/>
<text text-anchor="middle" x="494.5" y="-870" font-family="Microsoft YaHei" font-size="20.00">汉石经</text>
<text text-anchor="middle" x="494.5" y="-848" font-family="Microsoft YaHei" font-size="20.00">（隶书）</text>
<text text-anchor="middle" x="494.5" y="-826" font-family="Microsoft YaHei" font-size="20.00">29篇+序</text>
<text text-anchor="middle" x="494.5" y="-804" font-family="Microsoft YaHei" font-size="20.00">金文32卷</text>
</g>
<!-- OUYANGBENJING&#45;&gt;HANSHIJING -->
<g id="edge13" class="edge">
<title>OUYANGBENJING&#45;&gt;HANSHIJING</title>
<path fill="none" stroke="black" d="M442.02,-1002.77C453.11,-969 467.97,-923.75 479.05,-890.03"/>
</g>
<!-- OUYANGBENJING&#45;&gt;DULIN -->
<g id="edge21" class="edge">
<title>OUYANGBENJING&#45;&gt;DULIN</title>
<path fill="none" stroke="black" stroke-dasharray="1,5" d="M392.73,-1002.77C373.54,-975.92 349.15,-941.82 327.84,-912.02"/>
</g>
<!-- WEISHIJING -->
<g id="node16" class="node">
<title>WEISHIJING</title>
<polygon fill="none" stroke="black" points="351,-736 152,-736 152,-640 351,-640 351,-736"/>
<text text-anchor="middle" x="251.5" y="-716" font-family="Microsoft YaHei" font-size="20.00">魏石经</text>
<text text-anchor="middle" x="251.5" y="-694" font-family="Microsoft YaHei" font-size="20.00">（古、篆、隶三体）</text>
<text text-anchor="middle" x="251.5" y="-672" font-family="Microsoft YaHei" font-size="20.00">古文34篇</text>
<text text-anchor="middle" x="251.5" y="-650" font-family="Microsoft YaHei" font-size="20.00">13卷</text>
</g>
<!-- DULIN&#45;&gt;WEISHIJING -->
<g id="edge15" class="edge">
<title>DULIN&#45;&gt;WEISHIJING</title>
<path fill="none" stroke="black" d="M266.19,-771.67C264.04,-759.61 261.86,-747.33 259.86,-736.05"/>
</g>
<!-- box1 -->
<g id="node27" class="node">
<title>box1</title>
<polygon fill="none" stroke="black" points="453,-553 306,-553 306,-391 453,-391 453,-553"/>
<text text-anchor="middle" x="379.5" y="-533" font-family="Microsoft YaHei" font-size="20.00">29&#45;太誓=28</text>
<text text-anchor="middle" x="379.5" y="-511" font-family="Microsoft YaHei" font-size="20.00">28中析增舜典</text>
<text text-anchor="middle" x="379.5" y="-489" font-family="Microsoft YaHei" font-size="20.00">益稷</text>
<text text-anchor="middle" x="379.5" y="-467" font-family="Microsoft YaHei" font-size="20.00">康王之诰</text>
<text text-anchor="middle" x="379.5" y="-445" font-family="Microsoft YaHei" font-size="20.00">+盘庚2</text>
<text text-anchor="middle" x="379.5" y="-423" font-family="Microsoft YaHei" font-size="20.00">——————</text>
<text text-anchor="middle" x="379.5" y="-401" font-family="Microsoft YaHei" font-size="20.00">真古文 &#160;33篇</text>
</g>
<!-- DULIN&#45;&gt;box1 -->
<g id="edge27" class="edge">
<title>DULIN&#45;&gt;box1</title>
<path fill="none" stroke="black" d="M341.33,-771.9C348.95,-760.54 355.72,-748.41 360.5,-736 381.59,-681.23 386.32,-615.36 385.79,-563.24"/>
<polygon fill="black" stroke="black" points="389.29,-562.95 385.62,-553.01 382.29,-563.07 389.29,-562.95"/>
</g>
<!-- KONGZI -->
<g id="node17" class="node">
<title>KONGZI</title>
<polygon fill="none" stroke="black" points="979.5,-1363 837.5,-1363 837.5,-1311 979.5,-1311 979.5,-1363"/>
<text text-anchor="middle" x="908.5" y="-1343" font-family="Microsoft YaHei" font-size="20.00">孔子家传本</text>
<text text-anchor="middle" x="908.5" y="-1321" font-family="Microsoft YaHei" font-size="20.00">29篇加十余篇</text>
</g>
<!-- LIUXIN -->
<g id="node21" class="node">
<title>LIUXIN</title>
<polygon fill="none" stroke="black" points="1049.5,-1154 767.5,-1154 767.5,-948 1049.5,-948 1049.5,-1154"/>
<text text-anchor="middle" x="908.5" y="-1134" font-family="Microsoft YaHei" font-size="20.00">刘歆倡中秘孔壁本</text>
<text text-anchor="middle" x="908.5" y="-1112" font-family="Microsoft YaHei" font-size="20.00">29+16=45篇</text>
<text text-anchor="middle" x="908.5" y="-1090" font-family="Microsoft YaHei" font-size="20.00">《七略》：46卷（45+书序）</text>
<text text-anchor="middle" x="908.5" y="-1068" font-family="Microsoft YaHei" font-size="20.00">《别录》：58篇</text>
<text text-anchor="middle" x="908.5" y="-1046" font-family="Microsoft YaHei" font-size="20.00">（ 29+盘庚2太誓2</text>
<text text-anchor="middle" x="908.5" y="-1024" font-family="Microsoft YaHei" font-size="20.00">康王之诰=34</text>
<text text-anchor="middle" x="908.5" y="-1002" font-family="Microsoft YaHei" font-size="20.00">16+九共8=24</text>
<text text-anchor="middle" x="908.5" y="-980" font-family="Microsoft YaHei" font-size="20.00">34+24=58</text>
<text text-anchor="middle" x="908.5" y="-958" font-family="Microsoft YaHei" font-size="20.00">《新论》：45卷、48篇</text>
</g>
<!-- KONGZI&#45;&gt;LIUXIN -->
<g id="edge19" class="edge">
<title>KONGZI&#45;&gt;LIUXIN</title>
<path fill="none" stroke="black" d="M908.5,-1310.8C908.5,-1275.77 908.5,-1210.33 908.5,-1154.02"/>
</g>
<!-- MAZHENG -->
<g id="node18" class="node">
<title>MAZHENG</title>
<polygon fill="none" stroke="black" points="779.5,-860 601.5,-860 601.5,-824 779.5,-824 779.5,-860"/>
<text text-anchor="middle" x="690.5" y="-837" font-family="Microsoft YaHei" font-size="20.00">马、郑注百篇书序</text>
</g>
<!-- TANGSHIJING -->
<g id="node19" class="node">
<title>TANGSHIJING</title>
<polygon fill="none" stroke="black" points="479,-250 280,-250 280,-132 479,-132 479,-250"/>
<text text-anchor="middle" x="379.5" y="-230" font-family="Microsoft YaHei" font-size="20.00">唐石经</text>
<text text-anchor="middle" x="379.5" y="-208" font-family="Microsoft YaHei" font-size="20.00">（由隶古定改楷书）</text>
<text text-anchor="middle" x="379.5" y="-186" font-family="Microsoft YaHei" font-size="20.00">伪古文13卷</text>
<text text-anchor="middle" x="379.5" y="-164" font-family="Microsoft YaHei" font-size="20.00">58篇</text>
<text text-anchor="middle" x="379.5" y="-142" font-family="Microsoft YaHei" font-size="20.00">（真33+伪25）</text>
</g>
<!-- KANBEN -->
<g id="node20" class="node">
<title>KANBEN</title>
<polygon fill="none" stroke="black" points="462.5,-96 296.5,-96 296.5,0 462.5,0 462.5,-96"/>
<text text-anchor="middle" x="379.5" y="-76" font-family="Microsoft YaHei" font-size="20.00">各种刊本</text>
<text text-anchor="middle" x="379.5" y="-54" font-family="Microsoft YaHei" font-size="20.00">孔传本13卷58篇</text>
<text text-anchor="middle" x="379.5" y="-32" font-family="Microsoft YaHei" font-size="20.00">注疏本20卷58篇</text>
<text text-anchor="middle" x="379.5" y="-10" font-family="Microsoft YaHei" font-size="20.00">集传本6卷58篇</text>
</g>
<!-- TANGSHIJING&#45;&gt;KANBEN -->
<g id="edge18" class="edge">
<title>TANGSHIJING&#45;&gt;KANBEN</title>
<path fill="none" stroke="black" d="M379.5,-131.84C379.5,-120 379.5,-107.69 379.5,-96.29"/>
</g>
<!-- DONGHANZHULU -->
<g id="node22" class="node">
<title>DONGHANZHULU</title>
<polygon fill="none" stroke="black" points="1117.5,-879 797.5,-879 797.5,-805 1117.5,-805 1117.5,-879"/>
<text text-anchor="middle" x="957.5" y="-859" font-family="Microsoft YaHei" font-size="20.00">《汉 艺文志》： 46卷 57篇</text>
<text text-anchor="middle" x="957.5" y="-837" font-family="Microsoft YaHei" font-size="20.00">郑玄《叙赞》：58&#45;武成=57</text>
<text text-anchor="middle" x="957.5" y="-815" font-family="Microsoft YaHei" font-size="20.00">马融《书叙》：逸十六篇绝无师说</text>
</g>
<!-- LIUXIN&#45;&gt;DONGHANZHULU -->
<g id="edge20" class="edge">
<title>LIUXIN&#45;&gt;DONGHANZHULU</title>
<path fill="none" stroke="black" d="M932.71,-947.71C938.55,-923.06 944.4,-898.32 948.96,-879.08"/>
</g>
<!-- SHUXU -->
<g id="node23" class="node">
<title>SHUXU</title>
<polygon fill="none" stroke="black" points="660,-1245 603,-1245 603,-1209 660,-1209 660,-1245"/>
<text text-anchor="middle" x="631.5" y="-1222" font-family="Microsoft YaHei" font-size="20.00">书序</text>
</g>
<!-- SHUXU&#45;&gt;OUYANGBENJING -->
<g id="edge29" class="edge">
<title>SHUXU&#45;&gt;OUYANGBENJING</title>
<path fill="none" stroke="black" d="M611.47,-1209C583.49,-1185.25 531.44,-1141.07 489.67,-1105.62"/>
<polygon fill="black" stroke="black" points="491.89,-1102.91 482,-1099.11 487.36,-1108.25 491.89,-1102.91"/>
</g>
<!-- SHUXU&#45;&gt;MAZHENG -->
<g id="edge16" class="edge">
<title>SHUXU&#45;&gt;MAZHENG</title>
<path fill="none" stroke="black" d="M634.15,-1208.8C643.95,-1145.19 678.07,-923.68 687.86,-860.15"/>
</g>
<!-- SHUXU&#45;&gt;LIUXIN -->
<g id="edge24" class="edge">
<title>SHUXU&#45;&gt;LIUXIN</title>
<path fill="none" stroke="black" d="M658.56,-1209C682.67,-1193.85 720.01,-1170.4 758.54,-1146.2"/>
<polygon fill="black" stroke="black" points="760.69,-1148.98 767.29,-1140.7 756.96,-1143.06 760.69,-1148.98"/>
</g>
<!-- box3 -->
<g id="node30" class="node">
<title>box3</title>
<polygon fill="none" stroke="black" points="600.5,-564 546.5,-564 546.5,-380 600.5,-380 600.5,-564"/>
<text text-anchor="middle" x="573.5" y="-544" font-family="Microsoft YaHei" font-size="20.00">书</text>
<text text-anchor="middle" x="573.5" y="-522" font-family="Microsoft YaHei" font-size="20.00">序</text>
<text text-anchor="middle" x="573.5" y="-500" font-family="Microsoft YaHei" font-size="20.00">分</text>
<text text-anchor="middle" x="573.5" y="-478" font-family="Microsoft YaHei" font-size="20.00">散</text>
<text text-anchor="middle" x="573.5" y="-456" font-family="Microsoft YaHei" font-size="20.00">配</text>
<text text-anchor="middle" x="573.5" y="-434" font-family="Microsoft YaHei" font-size="20.00">于</text>
<text text-anchor="middle" x="573.5" y="-412" font-family="Microsoft YaHei" font-size="20.00">各</text>
<text text-anchor="middle" x="573.5" y="-390" font-family="Microsoft YaHei" font-size="20.00">篇</text>
</g>
<!-- SHUXU&#45;&gt;box3 -->
<g id="edge28" class="edge">
<title>SHUXU&#45;&gt;box3</title>
<path fill="none" stroke="black" d="M628.85,-1208.69C621.72,-1161.33 602,-1025.59 592.5,-912 582.85,-796.53 577.96,-663.53 575.58,-574.46"/>
<polygon fill="black" stroke="black" points="579.08,-574.27 575.32,-564.36 572.08,-574.45 579.08,-574.27"/>
</g>
<!-- helper -->
<!-- helper&#45;&gt;TANGSHIJING -->
<g id="edge17" class="edge">
<title>helper&#45;&gt;TANGSHIJING</title>
<path fill="none" stroke="black" d="M379.5,-285.66C379.5,-275.9 379.5,-263.1 379.5,-250.1"/>
</g>
<!-- TAISHI -->
<g id="node25" class="node">
<title>TAISHI</title>
<polygon fill="none" stroke="black" points="452,-1454 375,-1454 375,-1418 452,-1418 452,-1454"/>
<text text-anchor="middle" x="413.5" y="-1431" font-family="Microsoft YaHei" font-size="20.00">太誓篇</text>
</g>
<!-- TAISHI&#45;&gt;OUYANG -->
<g id="edge22" class="edge">
<title>TAISHI&#45;&gt;OUYANG</title>
<path fill="none" stroke="black" d="M413.5,-1417.66C413.5,-1408.3 413.5,-1396.26 413.5,-1384.39"/>
<polygon fill="black" stroke="black" points="417,-1384.07 413.5,-1374.07 410,-1384.07 417,-1384.07"/>
</g>
<!-- 史记、左传 -->
<g id="node26" class="node">
<title>史记、左传</title>
<polygon fill="none" stroke="black" points="690.5,-1355 572.5,-1355 572.5,-1319 690.5,-1319 690.5,-1355"/>
<text text-anchor="middle" x="631.5" y="-1332" font-family="Microsoft YaHei" font-size="20.00">史记、左传</text>
</g>
<!-- 史记、左传&#45;&gt;SHUXU -->
<g id="edge23" class="edge">
<title>史记、左传&#45;&gt;SHUXU</title>
<path fill="none" stroke="black" d="M631.5,-1318.65C631.5,-1301.56 631.5,-1275.22 631.5,-1255.32"/>
<polygon fill="black" stroke="black" points="635,-1255.31 631.5,-1245.31 628,-1255.31 635,-1255.31"/>
</g>
<!-- box1&#45;&gt;helper -->
<!-- box2 -->
<g id="node28" class="node">
<title>box2</title>
<polygon fill="none" stroke="black" points="528,-586 471,-586 471,-358 528,-358 528,-586"/>
<text text-anchor="middle" x="499.5" y="-566" font-family="Microsoft YaHei" font-size="20.00">伪</text>
<text text-anchor="middle" x="499.5" y="-544" font-family="Microsoft YaHei" font-size="20.00">古</text>
<text text-anchor="middle" x="499.5" y="-522" font-family="Microsoft YaHei" font-size="20.00">文</text>
<text text-anchor="middle" x="499.5" y="-500" font-family="Microsoft YaHei" font-size="20.00">25</text>
<text text-anchor="middle" x="499.5" y="-478" font-family="Microsoft YaHei" font-size="20.00">篇</text>
<text text-anchor="middle" x="499.5" y="-456" font-family="Microsoft YaHei" font-size="20.00">（包</text>
<text text-anchor="middle" x="499.5" y="-434" font-family="Microsoft YaHei" font-size="20.00">括</text>
<text text-anchor="middle" x="499.5" y="-412" font-family="Microsoft YaHei" font-size="20.00">伪</text>
<text text-anchor="middle" x="499.5" y="-390" font-family="Microsoft YaHei" font-size="20.00">泰</text>
<text text-anchor="middle" x="499.5" y="-368" font-family="Microsoft YaHei" font-size="20.00">誓）</text>
</g>
<!-- node1 -->
<g id="node29" class="node">
<title>node1</title>
<text text-anchor="middle" x="499.5" y="-299" font-family="Microsoft YaHei" font-size="20.00">13卷、58篇</text>
</g>
<!-- box2&#45;&gt;node1 -->
</g>
</svg>
