<svg id="mermaid-1617883093314" width="100%" xmlns="http://www.w3.org/2000/svg" viewBox="0 0 889 1948" height="1948" style="max-width: 889px;"><style>#mermaid-1617883093314{font-family:"trebuchet ms",verdana,arial,sans-serif;font-size:16px;fill:#333;}#mermaid-1617883093314 .error-icon{fill:#552222;}#mermaid-1617883093314 .error-text{fill:#552222;stroke:#552222;}#mermaid-1617883093314 .edge-thickness-normal{stroke-width:2px;}#mermaid-1617883093314 .edge-thickness-thick{stroke-width:3.5px;}#mermaid-1617883093314 .edge-pattern-solid{stroke-dasharray:0;}#mermaid-1617883093314 .edge-pattern-dashed{stroke-dasharray:3;}#mermaid-1617883093314 .edge-pattern-dotted{stroke-dasharray:2;}#mermaid-1617883093314 .marker{fill:#333333;stroke:#333333;}#mermaid-1617883093314 .marker.cross{stroke:#333333;}#mermaid-1617883093314 svg{font-family:"trebuchet ms",verdana,arial,sans-serif;font-size:16px;}#mermaid-1617883093314 .mermaid-main-font{font-family:"trebuchet ms",verdana,arial,sans-serif;font-family:var(--mermaid-font-family);}#mermaid-1617883093314 .section{stroke:none;opacity:0.2;}#mermaid-1617883093314 .section0{fill:rgba(102,102,255,0.49);}#mermaid-1617883093314 .section2{fill:#fff400;}#mermaid-1617883093314 .section1,#mermaid-1617883093314 .section3{fill:white;opacity:0.2;}#mermaid-1617883093314 .sectionTitle0{fill:#333;}#mermaid-1617883093314 .sectionTitle1{fill:#333;}#mermaid-1617883093314 .sectionTitle2{fill:#333;}#mermaid-1617883093314 .sectionTitle3{fill:#333;}#mermaid-1617883093314 .sectionTitle{text-anchor:start;font-size:11px;text-height:14px;font-family:'trebuchet ms',verdana,arial,sans-serif;font-family:var(--mermaid-font-family);}#mermaid-1617883093314 .grid .tick{stroke:lightgrey;opacity:0.8;shape-rendering:crispEdges;}#mermaid-1617883093314 .grid .tick text{font-family:"trebuchet ms",verdana,arial,sans-serif;fill:#333;}#mermaid-1617883093314 .grid path{stroke-width:0;}#mermaid-1617883093314 .today{fill:none;stroke:red;stroke-width:2px;}#mermaid-1617883093314 .task{stroke-width:2;}#mermaid-1617883093314 .taskText{text-anchor:middle;font-family:'trebuchet ms',verdana,arial,sans-serif;font-family:var(--mermaid-font-family);}#mermaid-1617883093314 .taskText:not([font-size]){font-size:11px;}#mermaid-1617883093314 .taskTextOutsideRight{fill:black;text-anchor:start;font-size:11px;font-family:'trebuchet ms',verdana,arial,sans-serif;font-family:var(--mermaid-font-family);}#mermaid-1617883093314 .taskTextOutsideLeft{fill:black;text-anchor:end;font-size:11px;}#mermaid-1617883093314 .task.clickable{cursor:pointer;}#mermaid-1617883093314 .taskText.clickable{cursor:pointer;fill:#003163 !important;font-weight:bold;}#mermaid-1617883093314 .taskTextOutsideLeft.clickable{cursor:pointer;fill:#003163 !important;font-weight:bold;}#mermaid-1617883093314 .taskTextOutsideRight.clickable{cursor:pointer;fill:#003163 !important;font-weight:bold;}#mermaid-1617883093314 .taskText0,#mermaid-1617883093314 .taskText1,#mermaid-1617883093314 .taskText2,#mermaid-1617883093314 .taskText3{fill:white;}#mermaid-1617883093314 .task0,#mermaid-1617883093314 .task1,#mermaid-1617883093314 .task2,#mermaid-1617883093314 .task3{fill:#8a90dd;stroke:#534fbc;}#mermaid-1617883093314 .taskTextOutside0,#mermaid-1617883093314 .taskTextOutside2{fill:black;}#mermaid-1617883093314 .taskTextOutside1,#mermaid-1617883093314 .taskTextOutside3{fill:black;}#mermaid-1617883093314 .active0,#mermaid-1617883093314 .active1,#mermaid-1617883093314 .active2,#mermaid-1617883093314 .active3{fill:#bfc7ff;stroke:#534fbc;}#mermaid-1617883093314 .activeText0,#mermaid-1617883093314 .activeText1,#mermaid-1617883093314 .activeText2,#mermaid-1617883093314 .activeText3{fill:black !important;}#mermaid-1617883093314 .done0,#mermaid-1617883093314 .done1,#mermaid-1617883093314 .done2,#mermaid-1617883093314 .done3{stroke:grey;fill:lightgrey;stroke-width:2;}#mermaid-1617883093314 .doneText0,#mermaid-1617883093314 .doneText1,#mermaid-1617883093314 .doneText2,#mermaid-1617883093314 .doneText3{fill:black !important;}#mermaid-1617883093314 .crit0,#mermaid-1617883093314 .crit1,#mermaid-1617883093314 .crit2,#mermaid-1617883093314 .crit3{stroke:#ff8888;fill:red;stroke-width:2;}#mermaid-1617883093314 .activeCrit0,#mermaid-1617883093314 .activeCrit1,#mermaid-1617883093314 .activeCrit2,#mermaid-1617883093314 .activeCrit3{stroke:#ff8888;fill:#bfc7ff;stroke-width:2;}#mermaid-1617883093314 .doneCrit0,#mermaid-1617883093314 .doneCrit1,#mermaid-1617883093314 .doneCrit2,#mermaid-1617883093314 .doneCrit3{stroke:#ff8888;fill:lightgrey;stroke-width:2;cursor:pointer;shape-rendering:crispEdges;}#mermaid-1617883093314 .milestone{-webkit-transform:rotate(45deg) scale(0.8,0.8);-ms-transform:rotate(45deg) scale(0.8,0.8);transform:rotate(45deg) scale(0.8,0.8);}#mermaid-1617883093314 .milestoneText{font-style:italic;}#mermaid-1617883093314 .doneCritText0,#mermaid-1617883093314 .doneCritText1,#mermaid-1617883093314 .doneCritText2,#mermaid-1617883093314 .doneCritText3{fill:black !important;}#mermaid-1617883093314 .activeCritText0,#mermaid-1617883093314 .activeCritText1,#mermaid-1617883093314 .activeCritText2,#mermaid-1617883093314 .activeCritText3{fill:black !important;}#mermaid-1617883093314 .titleText{text-anchor:middle;font-size:18px;fill:#333;font-family:'trebuchet ms',verdana,arial,sans-serif;font-family:var(--mermaid-font-family);}#mermaid-1617883093314:root{--mermaid-font-family:"trebuchet ms",verdana,arial,sans-serif;}#mermaid-1617883093314 gantt{fill:apa;}</style><g></g><g class="grid" transform="translate(75, 1898)" fill="none" font-size="10" font-family="sans-serif" text-anchor="middle"><path class="domain" stroke="currentColor" d="M0.5,-1863V0.5H739.5V-1863"></path><g class="tick" opacity="1" transform="translate(0.5,0)"><line stroke="currentColor" y2="-1863"></line><text fill="#000" y="3" dy="1em" stroke="none" font-size="10" style="text-anchor: middle;"> 公元0000年</text></g><g class="tick" opacity="1" transform="translate(58.5,0)"><line stroke="currentColor" y2="-1863"></line><text fill="#000" y="3" dy="1em" stroke="none" font-size="10" style="text-anchor: middle;"> 公元0050年</text></g><g class="tick" opacity="1" transform="translate(115.5,0)"><line stroke="currentColor" y2="-1863"></line><text fill="#000" y="3" dy="1em" stroke="none" font-size="10" style="text-anchor: middle;"> 公元0100年</text></g><g class="tick" opacity="1" transform="translate(173.5,0)"><line stroke="currentColor" y2="-1863"></line><text fill="#000" y="3" dy="1em" stroke="none" font-size="10" style="text-anchor: middle;"> 公元0150年</text></g><g class="tick" opacity="1" transform="translate(231.5,0)"><line stroke="currentColor" y2="-1863"></line><text fill="#000" y="3" dy="1em" stroke="none" font-size="10" style="text-anchor: middle;"> 公元0200年</text></g><g class="tick" opacity="1" transform="translate(289.5,0)"><line stroke="currentColor" y2="-1863"></line><text fill="#000" y="3" dy="1em" stroke="none" font-size="10" style="text-anchor: middle;"> 公元0250年</text></g><g class="tick" opacity="1" transform="translate(346.5,0)"><line stroke="currentColor" y2="-1863"></line><text fill="#000" y="3" dy="1em" stroke="none" font-size="10" style="text-anchor: middle;"> 公元0300年</text></g><g class="tick" opacity="1" transform="translate(404.5,0)"><line stroke="currentColor" y2="-1863"></line><text fill="#000" y="3" dy="1em" stroke="none" font-size="10" style="text-anchor: middle;"> 公元0350年</text></g><g class="tick" opacity="1" transform="translate(462.5,0)"><line stroke="currentColor" y2="-1863"></line><text fill="#000" y="3" dy="1em" stroke="none" font-size="10" style="text-anchor: middle;"> 公元0400年</text></g><g class="tick" opacity="1" transform="translate(520.5,0)"><line stroke="currentColor" y2="-1863"></line><text fill="#000" y="3" dy="1em" stroke="none" font-size="10" style="text-anchor: middle;"> 公元0450年</text></g><g class="tick" opacity="1" transform="translate(577.5,0)"><line stroke="currentColor" y2="-1863"></line><text fill="#000" y="3" dy="1em" stroke="none" font-size="10" style="text-anchor: middle;"> 公元0500年</text></g><g class="tick" opacity="1" transform="translate(635.5,0)"><line stroke="currentColor" y2="-1863"></line><text fill="#000" y="3" dy="1em" stroke="none" font-size="10" style="text-anchor: middle;"> 公元0550年</text></g><g class="tick" opacity="1" transform="translate(693.5,0)"><line stroke="currentColor" y2="-1863"></line><text fill="#000" y="3" dy="1em" stroke="none" font-size="10" style="text-anchor: middle;"> 公元0600年</text></g></g><g><rect x="0" y="888" width="851.5" height="24" class="section section1"></rect><rect x="0" y="912" width="851.5" height="24" class="section section1"></rect><rect x="0" y="936" width="851.5" height="24" class="section section1"></rect><rect x="0" y="960" width="851.5" height="24" class="section section1"></rect><rect x="0" y="984" width="851.5" height="24" class="section section1"></rect><rect x="0" y="1008" width="851.5" height="24" class="section section1"></rect><rect x="0" y="1032" width="851.5" height="24" class="section section1"></rect><rect x="0" y="1056" width="851.5" height="24" class="section section1"></rect><rect x="0" y="1080" width="851.5" height="24" class="section section1"></rect><rect x="0" y="1104" width="851.5" height="24" class="section section1"></rect><rect x="0" y="1128" width="851.5" height="24" class="section section1"></rect><rect x="0" y="1152" width="851.5" height="24" class="section section1"></rect><rect x="0" y="1176" width="851.5" height="24" class="section section1"></rect><rect x="0" y="1200" width="851.5" height="24" class="section section1"></rect><rect x="0" y="1224" width="851.5" height="24" class="section section1"></rect><rect x="0" y="1248" width="851.5" height="24" class="section section1"></rect><rect x="0" y="1272" width="851.5" height="24" class="section section1"></rect><rect x="0" y="48" width="851.5" height="24" class="section section0"></rect><rect x="0" y="120" width="851.5" height="24" class="section section0"></rect><rect x="0" y="192" width="851.5" height="24" class="section section0"></rect><rect x="0" y="216" width="851.5" height="24" class="section section0"></rect><rect x="0" y="240" width="851.5" height="24" class="section section0"></rect><rect x="0" y="264" width="851.5" height="24" class="section section0"></rect><rect x="0" y="312" width="851.5" height="24" class="section section0"></rect><rect x="0" y="336" width="851.5" height="24" class="section section0"></rect><rect x="0" y="360" width="851.5" height="24" class="section section0"></rect><rect x="0" y="384" width="851.5" height="24" class="section section0"></rect><rect x="0" y="408" width="851.5" height="24" class="section section0"></rect><rect x="0" y="432" width="851.5" height="24" class="section section0"></rect><rect x="0" y="456" width="851.5" height="24" class="section section0"></rect><rect x="0" y="480" width="851.5" height="24" class="section section0"></rect><rect x="0" y="504" width="851.5" height="24" class="section section0"></rect><rect x="0" y="528" width="851.5" height="24" class="section section0"></rect><rect x="0" y="552" width="851.5" height="24" class="section section0"></rect><rect x="0" y="576" width="851.5" height="24" class="section section0"></rect><rect x="0" y="600" width="851.5" height="24" class="section section0"></rect><rect x="0" y="624" width="851.5" height="24" class="section section0"></rect><rect x="0" y="648" width="851.5" height="24" class="section section0"></rect><rect x="0" y="672" width="851.5" height="24" class="section section0"></rect><rect x="0" y="696" width="851.5" height="24" class="section section0"></rect><rect x="0" y="720" width="851.5" height="24" class="section section0"></rect><rect x="0" y="744" width="851.5" height="24" class="section section0"></rect><rect x="0" y="768" width="851.5" height="24" class="section section0"></rect><rect x="0" y="792" width="851.5" height="24" class="section section0"></rect><rect x="0" y="816" width="851.5" height="24" class="section section0"></rect><rect x="0" y="840" width="851.5" height="24" class="section section0"></rect><rect x="0" y="864" width="851.5" height="24" class="section section0"></rect><rect x="0" y="1752" width="851.5" height="24" class="section section3"></rect><rect x="0" y="1776" width="851.5" height="24" class="section section3"></rect><rect x="0" y="1800" width="851.5" height="24" class="section section3"></rect><rect x="0" y="1824" width="851.5" height="24" class="section section3"></rect><rect x="0" y="1848" width="851.5" height="24" class="section section3"></rect><rect x="0" y="72" width="851.5" height="24" class="section section0"></rect><rect x="0" y="96" width="851.5" height="24" class="section section0"></rect><rect x="0" y="144" width="851.5" height="24" class="section section0"></rect><rect x="0" y="168" width="851.5" height="24" class="section section0"></rect><rect x="0" y="288" width="851.5" height="24" class="section section0"></rect><rect x="0" y="1296" width="851.5" height="24" class="section section2"></rect><rect x="0" y="1320" width="851.5" height="24" class="section section2"></rect><rect x="0" y="1344" width="851.5" height="24" class="section section2"></rect><rect x="0" y="1368" width="851.5" height="24" class="section section2"></rect><rect x="0" y="1392" width="851.5" height="24" class="section section2"></rect><rect x="0" y="1416" width="851.5" height="24" class="section section2"></rect><rect x="0" y="1440" width="851.5" height="24" class="section section2"></rect><rect x="0" y="1464" width="851.5" height="24" class="section section2"></rect><rect x="0" y="1488" width="851.5" height="24" class="section section2"></rect><rect x="0" y="1512" width="851.5" height="24" class="section section2"></rect><rect x="0" y="1536" width="851.5" height="24" class="section section2"></rect><rect x="0" y="1560" width="851.5" height="24" class="section section2"></rect><rect x="0" y="1584" width="851.5" height="24" class="section section2"></rect><rect x="0" y="1608" width="851.5" height="24" class="section section2"></rect><rect x="0" y="1632" width="851.5" height="24" class="section section2"></rect><rect x="0" y="1656" width="851.5" height="24" class="section section2"></rect><rect x="0" y="1680" width="851.5" height="24" class="section section2"></rect><rect x="0" y="1704" width="851.5" height="24" class="section section2"></rect><rect x="0" y="1728" width="851.5" height="24" class="section section2"></rect><rect x="0" y="1872" width="851.5" height="24" class="section section3"></rect></g><g><rect id="task35" rx="3" ry="3" x="75" y="890" width="359" height="20" transform-origin="254.5px 60px" class="task done1 "></rect><rect id="task36" rx="3" ry="3" x="75" y="914" width="359" height="20" transform-origin="254.5px 84px" class="task done1 "></rect><rect id="task37" rx="3" ry="3" x="75" y="938" width="359" height="20" transform-origin="254.5px 108px" class="task done1 "></rect><rect id="task38" rx="3" ry="3" x="75" y="962" width="359" height="20" transform-origin="254.5px 132px" class="task done1 "></rect><rect id="task39" rx="3" ry="3" x="75" y="986" width="359" height="20" transform-origin="254.5px 156px" class="task done1 "></rect><rect id="task40" rx="3" ry="3" x="75" y="1010" width="359" height="20" transform-origin="254.5px 180px" class="task done1 "></rect><rect id="task41" rx="3" ry="3" x="75" y="1034" width="359" height="20" transform-origin="254.5px 204px" class="task done1 "></rect><rect id="task42" rx="3" ry="3" x="75" y="1058" width="359" height="20" transform-origin="254.5px 228px" class="task done1 "></rect><rect id="task43" rx="3" ry="3" x="75" y="1082" width="359" height="20" transform-origin="254.5px 252px" class="task done1 "></rect><rect id="task44" rx="3" ry="3" x="75" y="1106" width="359" height="20" transform-origin="254.5px 276px" class="task done1 "></rect><rect id="task45" rx="3" ry="3" x="75" y="1130" width="359" height="20" transform-origin="254.5px 300px" class="task done1 "></rect><rect id="task46" rx="3" ry="3" x="75" y="1154" width="359" height="20" transform-origin="254.5px 324px" class="task done1 "></rect><rect id="task47" rx="3" ry="3" x="75" y="1178" width="359" height="20" transform-origin="254.5px 348px" class="task done1 "></rect><rect id="task48" rx="3" ry="3" x="75" y="1202" width="359" height="20" transform-origin="254.5px 372px" class="task done1 "></rect><rect id="task49" rx="3" ry="3" x="75" y="1226" width="35" height="20" transform-origin="92.5px 396px" class="task done1 "></rect><rect id="task50" rx="3" ry="3" x="75" y="1250" width="359" height="20" transform-origin="254.5px 420px" class="task done1 "></rect><rect id="task51" rx="3" ry="3" x="75" y="1274" width="359" height="20" transform-origin="254.5px 444px" class="task done1 "></rect><rect id="task1" rx="3" ry="3" x="76" y="50" width="368" height="20" transform-origin="260px 468px" class="task done0 "></rect><rect id="task4" rx="3" ry="3" x="76" y="122" width="368" height="20" transform-origin="260px 492px" class="task done0 "></rect><rect id="task6" rx="3" ry="3" x="76" y="194" width="738" height="20" transform-origin="445px 516px" class="task task0 "></rect><rect id="task7" rx="3" ry="3" x="76" y="218" width="738" height="20" transform-origin="445px 540px" class="task task0 "></rect><rect id="task8" rx="3" ry="3" x="76" y="242" width="738" height="20" transform-origin="445px 564px" class="task task0 "></rect><rect id="task9" rx="3" ry="3" x="76" y="266" width="368" height="20" transform-origin="260px 588px" class="task done0 "></rect><rect id="task11" rx="3" ry="3" x="76" y="314" width="738" height="20" transform-origin="445px 612px" class="task task0 "></rect><rect id="task12" rx="3" ry="3" x="76" y="338" width="738" height="20" transform-origin="445px 636px" class="task task0 "></rect><rect id="task13" rx="3" ry="3" x="76" y="362" width="738" height="20" transform-origin="445px 660px" class="task task0 "></rect><rect id="task14" rx="3" ry="3" x="76" y="386" width="368" height="20" transform-origin="260px 684px" class="task doneCrit0 "></rect><rect id="task15" rx="3" ry="3" x="76" y="410" width="738" height="20" transform-origin="445px 708px" class="task active0 "></rect><rect id="task16" rx="3" ry="3" x="76" y="434" width="738" height="20" transform-origin="445px 732px" class="task active0 "></rect><rect id="task17" rx="3" ry="3" x="76" y="458" width="738" height="20" transform-origin="445px 756px" class="task active0 "></rect><rect id="task18" rx="3" ry="3" x="76" y="482" width="738" height="20" transform-origin="445px 780px" class="task active0 "></rect><rect id="task19" rx="3" ry="3" x="76" y="506" width="738" height="20" transform-origin="445px 804px" class="task active0 "></rect><rect id="task20" rx="3" ry="3" x="76" y="530" width="738" height="20" transform-origin="445px 828px" class="task active0 "></rect><rect id="task21" rx="3" ry="3" x="76" y="554" width="738" height="20" transform-origin="445px 852px" class="task active0 "></rect><rect id="task22" rx="3" ry="3" x="76" y="578" width="738" height="20" transform-origin="445px 876px" class="task active0 "></rect><rect id="task23" rx="3" ry="3" x="76" y="602" width="738" height="20" transform-origin="445px 900px" class="task active0 "></rect><rect id="task24" rx="3" ry="3" x="76" y="626" width="738" height="20" transform-origin="445px 924px" class="task active0 "></rect><rect id="task25" rx="3" ry="3" x="76" y="650" width="738" height="20" transform-origin="445px 948px" class="task active0 "></rect><rect id="task26" rx="3" ry="3" x="76" y="674" width="738" height="20" transform-origin="445px 972px" class="task active0 "></rect><rect id="task27" rx="3" ry="3" x="76" y="698" width="738" height="20" transform-origin="445px 996px" class="task active0 "></rect><rect id="task28" rx="3" ry="3" x="76" y="722" width="738" height="20" transform-origin="445px 1020px" class="task active0 "></rect><rect id="task29" rx="3" ry="3" x="76" y="746" width="738" height="20" transform-origin="445px 1044px" class="task active0 "></rect><rect id="task30" rx="3" ry="3" x="76" y="770" width="738" height="20" transform-origin="445px 1068px" class="task active0 "></rect><rect id="task31" rx="3" ry="3" x="76" y="794" width="738" height="20" transform-origin="445px 1092px" class="task active0 "></rect><rect id="task32" rx="3" ry="3" x="76" y="818" width="738" height="20" transform-origin="445px 1116px" class="task active0 "></rect><rect id="task33" rx="3" ry="3" x="76" y="842" width="738" height="20" transform-origin="445px 1140px" class="task active0 "></rect><rect id="task34" rx="3" ry="3" x="76" y="866" width="738" height="20" transform-origin="445px 1164px" class="task active0 "></rect><rect id="task71" rx="3" ry="3" x="76" y="1754" width="368" height="20" transform-origin="260px 1188px" class="task done3 "></rect><rect id="task72" rx="3" ry="3" x="76" y="1778" width="738" height="20" transform-origin="445px 1212px" class="task task3 "></rect><rect id="task73" rx="3" ry="3" x="76" y="1802" width="368" height="20" transform-origin="260px 1236px" class="task doneCrit3 "></rect><rect id="task74" rx="3" ry="3" x="76" y="1826" width="738" height="20" transform-origin="445px 1260px" class="task active3 "></rect><rect id="task75" rx="3" ry="3" x="76" y="1850" width="358" height="20" transform-origin="255px 1284px" class="task done3 "></rect><rect id="task2" rx="3" ry="3" x="444" y="74" width="370" height="20" transform-origin="629px 1308px" class="task task0 "></rect><rect id="task3" rx="3" ry="3" x="444" y="98" width="370" height="20" transform-origin="629px 1332px" class="task task0 "></rect><rect id="task5" rx="3" ry="3" x="444" y="146" width="370" height="20" transform-origin="629px 1356px" class="task task0 "></rect><rect id="" rx="3" ry="3" x="444" y="170" width="370" height="20" transform-origin="629px 1380px" class="task task0 "></rect><rect id="task10" rx="3" ry="3" x="444" y="290" width="370" height="20" transform-origin="629px 1404px" class="task task0 "></rect><rect id="task52" rx="3" ry="3" x="444" y="1298" width="370" height="20" transform-origin="629px 1428px" class="task task2 "></rect><rect id="task53" rx="3" ry="3" x="444" y="1322" width="370" height="20" transform-origin="629px 1452px" class="task task2 "></rect><rect id="task54" rx="3" ry="3" x="444" y="1346" width="370" height="20" transform-origin="629px 1476px" class="task task2 "></rect><rect id="task55" rx="3" ry="3" x="444" y="1370" width="370" height="20" transform-origin="629px 1500px" class="task task2 "></rect><rect id="task56" rx="3" ry="3" x="444" y="1394" width="370" height="20" transform-origin="629px 1524px" class="task task2 "></rect><rect id="task57" rx="3" ry="3" x="444" y="1418" width="370" height="20" transform-origin="629px 1548px" class="task task2 "></rect><rect id="task58" rx="3" ry="3" x="444" y="1442" width="370" height="20" transform-origin="629px 1572px" class="task task2 "></rect><rect id="task59" rx="3" ry="3" x="444" y="1466" width="370" height="20" transform-origin="629px 1596px" class="task task2 "></rect><rect id="task60" rx="3" ry="3" x="444" y="1490" width="370" height="20" transform-origin="629px 1620px" class="task task2 "></rect><rect id="task61" rx="3" ry="3" x="444" y="1514" width="370" height="20" transform-origin="629px 1644px" class="task task2 "></rect><rect id="task62" rx="3" ry="3" x="444" y="1538" width="370" height="20" transform-origin="629px 1668px" class="task task2 "></rect><rect id="task63" rx="3" ry="3" x="444" y="1562" width="370" height="20" transform-origin="629px 1692px" class="task task2 "></rect><rect id="task64" rx="3" ry="3" x="444" y="1586" width="370" height="20" transform-origin="629px 1716px" class="task task2 "></rect><rect id="task65" rx="3" ry="3" x="444" y="1610" width="370" height="20" transform-origin="629px 1740px" class="task task2 "></rect><rect id="task66" rx="3" ry="3" x="444" y="1634" width="370" height="20" transform-origin="629px 1764px" class="task task2 "></rect><rect id="task67" rx="3" ry="3" x="444" y="1658" width="370" height="20" transform-origin="629px 1788px" class="task task2 "></rect><rect id="task68" rx="3" ry="3" x="444" y="1682" width="370" height="20" transform-origin="629px 1812px" class="task task2 "></rect><rect id="task69" rx="3" ry="3" x="444" y="1706" width="370" height="20" transform-origin="629px 1836px" class="task task2 "></rect><rect id="task70" rx="3" ry="3" x="444" y="1730" width="370" height="20" transform-origin="629px 1860px" class="task task2 "></rect><rect id="task76" rx="3" ry="3" x="444" y="1874" width="370" height="20" transform-origin="629px 1884px" class="task task3 "></rect><text id="task35-text" font-size="11" x="254.5" y="903.5" text-height="20" class=" taskText taskText1  doneText1 width-22.796875">舜典 </text><text id="task36-text" font-size="11" x="254.5" y="927.5" text-height="20" class=" taskText taskText1  doneText1 width-23.578125">汨作 </text><text id="task37-text" font-size="11" x="254.5" y="951.5" text-height="20" class=" taskText taskText1  doneText1 width-61.5625">九共（9篇） </text><text id="task38-text" font-size="11" x="254.5" y="975.5" text-height="20" class=" taskText taskText1  doneText1 width-34.578125">大禹謨 </text><text id="task39-text" font-size="11" x="254.5" y="999.5" text-height="20" class=" taskText taskText1  doneText1 width-23.578125">益稷 </text><text id="task40-text" font-size="11" x="254.5" y="1023.5" text-height="20" class=" taskText taskText1  doneText1 width-45.578125">五子之歌 </text><text id="task41-text" font-size="11" x="254.5" y="1047.5" text-height="20" class=" taskText taskText1  doneText1 width-23.578125">胤征 </text><text id="task42-text" font-size="11" x="254.5" y="1071.5" text-height="20" class=" taskText taskText1  doneText1 width-23.578125">湯誥 </text><text id="task43-text" font-size="11" x="254.5" y="1095.5" text-height="20" class=" taskText taskText1  doneText1 width-45.578125">咸有一德 </text><text id="task44-text" font-size="11" x="254.5" y="1119.5" text-height="20" class=" taskText taskText1  doneText1 width-22.78125">泰誓</text><text id="task45-text" font-size="11" x="254.5" y="1143.5" text-height="20" class=" taskText taskText1  doneText1 width-22">典寳 </text><text id="task46-text" font-size="11" x="254.5" y="1167.5" text-height="20" class=" taskText taskText1  doneText1 width-22.796875">伊訓 </text><text id="task47-text" font-size="11" x="254.5" y="1191.5" text-height="20" class=" taskText taskText1  doneText1 width-23.578125">肆命 </text><text id="task48-text" font-size="11" x="254.5" y="1215.5" text-height="20" class=" taskText taskText1  doneText1 width-23.578125">原命 </text><text id="task49-text" font-size="11" x="92.5" y="1239.5" text-height="20" class=" taskText taskText1  doneText1 width-22.78125">武成 </text><text id="task50-text" font-size="11" x="254.5" y="1263.5" text-height="20" class=" taskText taskText1  doneText1 width-23.578125">旅獒 </text><text id="task51-text" font-size="11" x="254.5" y="1287.5" text-height="20" class=" taskText taskText1  doneText1 width-22.78125">冏命 </text><text id="task1-text" font-size="11" x="260" y="63.5" text-height="20" class=" taskText taskText0  doneText0 width-22">堯典 </text><text id="task4-text" font-size="11" x="260" y="135.5" text-height="20" class=" taskText taskText0  doneText0 width-34.578125">皋陶謨 </text><text id="task6-text" font-size="11" x="445" y="207.5" text-height="20" class=" taskText taskText0  width-22">禹貢 </text><text id="task7-text" font-size="11" x="445" y="231.5" text-height="20" class=" taskText taskText0  width-22.78125">甘誓 </text><text id="task8-text" font-size="11" x="445" y="255.5" text-height="20" class=" taskText taskText0  width-23.578125">湯誓</text><text id="task9-text" font-size="11" x="260" y="279.5" text-height="20" class=" taskText taskText0  doneText0 width-22.796875">盤庚</text><text id="task11-text" font-size="11" x="445" y="327.5" text-height="20" class=" taskText taskText0  width-44.796875">高宗肜日</text><text id="task12-text" font-size="11" x="445" y="351.5" text-height="20" class=" taskText taskText0  width-44.78125">西伯戡黎</text><text id="task13-text" font-size="11" x="445" y="375.5" text-height="20" class=" taskText taskText0  width-23.578125">微子</text><text id="task14-text" font-size="11" x="260" y="399.5" text-height="20" class=" taskText taskText0  doneCritText0 width-22.78125">泰誓</text><text id="task15-text" font-size="11" x="445" y="423.5" text-height="20" class=" taskText taskText0 activeText0 width-22.78125">牧誓 </text><text id="task16-text" font-size="11" x="445" y="447.5" text-height="20" class=" taskText taskText0 activeText0 width-23.578125">洪範</text><text id="task17-text" font-size="11" x="445" y="471.5" text-height="20" class=" taskText taskText0 activeText0 width-23.578125">金滕</text><text id="task18-text" font-size="11" x="445" y="495.5" text-height="20" class=" taskText taskText0 activeText0 width-23.578125">大誥</text><text id="task19-text" font-size="11" x="445" y="519.5" text-height="20" class=" taskText taskText0 activeText0 width-23.578125">康誥</text><text id="task20-text" font-size="11" x="445" y="543.5" text-height="20" class=" taskText taskText0 activeText0 width-23.578125">酒誥</text><text id="task21-text" font-size="11" x="445" y="567.5" text-height="20" class=" taskText taskText0 activeText0 width-23.578125">梓材</text><text id="task22-text" font-size="11" x="445" y="591.5" text-height="20" class=" taskText taskText0 activeText0 width-23.578125">召誥</text><text id="task23-text" font-size="11" x="445" y="615.5" text-height="20" class=" taskText taskText0 activeText0 width-23.578125">洛誥</text><text id="task24-text" font-size="11" x="445" y="639.5" text-height="20" class=" taskText taskText0 activeText0 width-22">多士</text><text id="task25-text" font-size="11" x="445" y="663.5" text-height="20" class=" taskText taskText0 activeText0 width-23.578125">無逸</text><text id="task26-text" font-size="11" x="445" y="687.5" text-height="20" class=" taskText taskText0 activeText0 width-23.578125">君奭</text><text id="task27-text" font-size="11" x="445" y="711.5" text-height="20" class=" taskText taskText0 activeText0 width-22">多方</text><text id="task28-text" font-size="11" x="445" y="735.5" text-height="20" class=" taskText taskText0 activeText0 width-22.78125">立政</text><text id="task29-text" font-size="11" x="445" y="759.5" text-height="20" class=" taskText taskText0 activeText0 width-23.578125">顧命</text><text id="task30-text" font-size="11" x="445" y="783.5" text-height="20" class=" taskText taskText0 activeText0 width-45.578125">康王之誥</text><text id="task31-text" font-size="11" x="445" y="807.5" text-height="20" class=" taskText taskText0 activeText0 width-22">呂刑</text><text id="task32-text" font-size="11" x="445" y="831.5" text-height="20" class=" taskText taskText0 activeText0 width-45.578125">文侯之命</text><text id="task33-text" font-size="11" x="445" y="855.5" text-height="20" class=" taskText taskText0 activeText0 width-23.578125">費誓</text><text id="task34-text" font-size="11" x="445" y="879.5" text-height="20" class=" taskText taskText0 activeText0 width-23.578125">秦誓</text><text id="task71-text" font-size="11" x="260" y="1767.5" text-height="20" class=" taskText taskText3  doneText3 width-61.546875">亡逸/被拆分</text><text id="task72-text" font-size="11" x="445" y="1791.5" text-height="20" class=" taskText taskText3  width-66">疑似戰國作品</text><text id="task73-text" font-size="11" x="260" y="1815.5" text-height="20" class=" taskText taskText3  doneCritText3 width-44.78125">真僞存疑 </text><text id="task74-text" font-size="11" x="445" y="1839.5" text-height="20" class=" taskText taskText3 activeText3 width-92.796875">(基本可信的）周書</text><text id="task75-text" font-size="11" x="255" y="1863.5" text-height="20" class=" taskText taskText3  doneText3 width-77.765625">亡逸的古文尚書</text><text id="task2-text" font-size="11" x="629" y="87.5" text-height="20" class=" taskText taskText0  width-22">堯典</text><text id="task3-text" font-size="11" x="629" y="111.5" text-height="20" class=" taskText taskText0  width-22.796875">舜典</text><text id="task5-text" font-size="11" x="629" y="159.5" text-height="20" class=" taskText taskText0  width-34.578125">皋陶謨</text><text id="-text" font-size="11" x="629" y="183.5" text-height="20" class=" taskText taskText0  width-23.578125">益稷</text><text id="task10-text" font-size="11" x="629" y="303.5" text-height="20" class=" taskText taskText0  width-61.5625">盤庚（3篇）</text><text id="task52-text" font-size="11" x="629" y="1311.5" text-height="20" class=" taskText taskText2  width-34.578125">大禹謨</text><text id="task53-text" font-size="11" x="629" y="1335.5" text-height="20" class=" taskText taskText2  width-45.578125">五子之歌</text><text id="task54-text" font-size="11" x="629" y="1359.5" text-height="20" class=" taskText taskText2  width-23.578125">胤征</text><text id="task55-text" font-size="11" x="629" y="1383.5" text-height="20" class=" taskText taskText2  width-45.578125">仲虺之誥</text><text id="task56-text" font-size="11" x="629" y="1407.5" text-height="20" class=" taskText taskText2  width-23.578125">湯誥</text><text id="task57-text" font-size="11" x="629" y="1431.5" text-height="20" class=" taskText taskText2  width-22.796875">伊訓</text><text id="task58-text" font-size="11" x="629" y="1455.5" text-height="20" class=" taskText taskText2  width-61.5625">太甲（3篇）</text><text id="task59-text" font-size="11" x="629" y="1479.5" text-height="20" class=" taskText taskText2  width-45.578125">咸有一德</text><text id="task60-text" font-size="11" x="629" y="1503.5" text-height="20" class=" taskText taskText2  width-61.5625">說命（3篇）</text><text id="task61-text" font-size="11" x="629" y="1527.5" text-height="20" class=" taskText taskText2  width-60.765625">泰誓（3篇）</text><text id="task62-text" font-size="11" x="629" y="1551.5" text-height="20" class=" taskText taskText2  width-22.78125">武成</text><text id="task63-text" font-size="11" x="629" y="1575.5" text-height="20" class=" taskText taskText2  width-23.578125">旅獒</text><text id="task64-text" font-size="11" x="629" y="1599.5" text-height="20" class=" taskText taskText2  width-45.578125">微子之命</text><text id="task65-text" font-size="11" x="629" y="1623.5" text-height="20" class=" taskText taskText2  width-45.578125">蔡仲之命</text><text id="task66-text" font-size="11" x="629" y="1647.5" text-height="20" class=" taskText taskText2  width-22.796875">周官</text><text id="task67-text" font-size="11" x="629" y="1671.5" text-height="20" class=" taskText taskText2  width-23.578125">君陳</text><text id="task68-text" font-size="11" x="629" y="1695.5" text-height="20" class=" taskText taskText2  width-22.78125">畢命</text><text id="task69-text" font-size="11" x="629" y="1719.5" text-height="20" class=" taskText taskText2  width-22.796875">君牙</text><text id="task70-text" font-size="11" x="629" y="1743.5" text-height="20" class=" taskText taskText2  width-22.78125">冏命</text><text id="task76-text" font-size="11" x="629" y="1887.5" text-height="20" class=" taskText taskText3  width-99.78125">偽古文尚書（晚書）</text></g><g><text dy="0em" x="10" y="470" class="sectionTitle sectionTitle0"><tspan alignment-baseline="central" x="10">今文尚书</tspan></text><text dy="0em" x="10" y="1094" class="sectionTitle sectionTitle1"><tspan alignment-baseline="central" x="10">古文尚书（多十六篇）</tspan></text><text dy="0em" x="10" y="1526" class="sectionTitle sectionTitle2"><tspan alignment-baseline="central" x="10">偽古文尚書（晚書）</tspan></text><text dy="0em" x="10" y="1826" class="sectionTitle sectionTitle3"><tspan alignment-baseline="central" x="10">圖例</tspan></text></g><text x="444.5" y="25" class="titleText">      尚書篇目大致亡佚時間表</text></svg>